# xmcd
#
# Track frame offsets:
#	150
#	19267
#	34625
#	51117
#	66497
#	79917
#	96900
#	113979
#	131447
#	155465
#
# Disc length: 2280 seconds
#
# Revision: 1
# Processed by: cddbd v1.5.1PL2 Copyright (c) Steve Scherf et al.
# Submitted via: audiograbber 1.83.01
#
DISCID=8308e60a
DTITLE=Hooker's Farm - Lost In Hebron
DYEAR=1995
DGENRE=Blues
TTITLE0=Hookers Farm
TTITLE1=Go Get It
TTITLE2=Loving Please
TTITLE3=Come On
TTITLE4=Love Me
TTITLE5=If I Trusted
TTITLE6=Thunder
TTITLE7=Wearing Me Down
TTITLE8=Don't Walk Away
TTITLE9=Know What You're Thinking
EXTD=
EXTT0=
EXTT1=
EXTT2=
EXTT3=
EXTT4=
EXTT5=
EXTT6=
EXTT7=
EXTT8=
EXTT9=
PLAYORDER=
